%
M48
M72
T01C0.0236
T02C0.0315
T03C0.0984
T04C0.1260
%
T01
X883Y4516
X692Y11195
X1712Y11186
X3958Y16040
X13883Y16392
X20603Y17393
X22099Y17393
X24264Y17393
X27211Y9927
X27289Y7604
X27304Y4387
X27344Y2969
T02
X26389Y18486
X16449Y18487
T03
X1499Y1490
X1499Y19957
X26826Y16065
X26839Y1490
T04
X13898Y1966
X13898Y10195
M30
