G75*
G70*
%OFA0B0*%
%FSLAX24Y24*%
%IPPOS*%
%LPD*%
%AMOC8*
5,1,8,0,0,1.08239X$1,22.5*
%
%ADD10C,0.1340*%
%ADD11C,0.1064*%
%ADD12R,0.0592X0.0671*%
%ADD13R,0.0671X0.0592*%
%ADD14R,0.0560X0.0960*%
%ADD15R,0.1497X0.0946*%
%ADD16R,0.0710X0.1261*%
%ADD17R,0.0710X0.1025*%
%ADD18R,0.1852X0.2245*%
%ADD19R,0.0934X0.0860*%
%ADD20R,0.0946X0.0671*%
%ADD21R,0.0740X0.0740*%
%ADD22R,0.0840X0.0840*%
%ADD23R,0.0940X0.0940*%
D10*
X013898Y001966D03*
X013898Y010195D03*
D11*
X001499Y001490D03*
X001499Y019957D03*
X026826Y016065D03*
X026839Y001490D03*
D12*
X026469Y006058D03*
X027217Y006058D03*
X009030Y018914D03*
X008282Y018914D03*
X005409Y016548D03*
X004661Y016548D03*
X004721Y015322D03*
X005469Y015322D03*
X015282Y020164D03*
X016030Y020164D03*
X001579Y006090D03*
X000831Y006090D03*
D13*
X001790Y009715D03*
X001790Y010463D03*
X005503Y013604D03*
X005503Y014352D03*
X020439Y018241D03*
X020439Y018989D03*
X021435Y019013D03*
X021435Y018265D03*
X022488Y018251D03*
X022488Y018999D03*
D14*
X012000Y020176D03*
X011090Y020176D03*
X010180Y020176D03*
D15*
X011090Y017736D03*
D16*
X013949Y017898D03*
X013949Y019631D03*
X024251Y019239D03*
X024251Y017506D03*
D17*
X006030Y018697D03*
X004849Y018697D03*
D18*
X011726Y006108D03*
X015946Y006108D03*
D19*
X009310Y016571D03*
D20*
X007499Y017063D03*
X007499Y016079D03*
D21*
X013883Y016392D03*
D22*
X020603Y017393D03*
X022099Y017393D03*
X024264Y017393D03*
X027211Y009927D03*
X027289Y007604D03*
X027304Y004387D03*
X027344Y002969D03*
X003958Y016040D03*
X001712Y011186D03*
X000692Y011195D03*
X000883Y004516D03*
D23*
X016449Y018487D03*
X026389Y018486D03*
M02*
