G75*
G70*
%OFA0B0*%
%FSLAX24Y24*%
%IPPOS*%
%LPD*%
%AMOC8*
5,1,8,0,0,1.08239X$1,22.5*
%
%ADD10R,0.2441X0.4240*%
%ADD11C,0.0240*%
%ADD12R,0.0660X0.0660*%
%ADD13R,0.0760X0.0760*%
%ADD14R,0.0860X0.0860*%
D10*
X013822Y006144D03*
D11*
X000230Y000222D02*
X000270Y021165D01*
X027968Y021178D01*
X027928Y000222D01*
X000230Y000222D01*
X000230Y000339D02*
X027929Y000339D01*
X027929Y000578D02*
X000231Y000578D01*
X000231Y000816D02*
X001264Y000816D01*
X001357Y000778D02*
X001641Y000778D01*
X001902Y000886D01*
X002103Y001087D01*
X002211Y001348D01*
X002211Y001632D01*
X002103Y001893D01*
X001902Y002094D01*
X001641Y002202D01*
X001357Y002202D01*
X001096Y002094D01*
X000895Y001893D01*
X000787Y001632D01*
X000787Y001348D01*
X000895Y001087D01*
X001096Y000886D01*
X001357Y000778D01*
X000927Y001055D02*
X000232Y001055D01*
X000232Y001294D02*
X000809Y001294D01*
X000787Y001532D02*
X000233Y001532D01*
X000233Y001771D02*
X000844Y001771D01*
X001011Y002009D02*
X000234Y002009D01*
X000234Y002248D02*
X013094Y002248D01*
X013048Y002135D02*
X013048Y001797D01*
X013177Y001485D01*
X013416Y001246D01*
X013728Y001116D01*
X014067Y001116D01*
X014379Y001246D01*
X014618Y001485D01*
X014747Y001797D01*
X014747Y002135D01*
X014618Y002448D01*
X014379Y002687D01*
X014067Y002816D01*
X013728Y002816D01*
X013416Y002687D01*
X013177Y002448D01*
X013048Y002135D01*
X013048Y002009D02*
X001987Y002009D01*
X002154Y001771D02*
X013059Y001771D01*
X013157Y001532D02*
X002211Y001532D01*
X002188Y001294D02*
X013368Y001294D01*
X014427Y001294D02*
X026149Y001294D01*
X026127Y001348D02*
X026235Y001087D01*
X026435Y000886D01*
X026697Y000778D01*
X026980Y000778D01*
X027242Y000886D01*
X027442Y001087D01*
X027551Y001348D01*
X027551Y001632D01*
X027442Y001893D01*
X027242Y002094D01*
X026980Y002202D01*
X026697Y002202D01*
X026435Y002094D01*
X026235Y001893D01*
X026127Y001632D01*
X026127Y001348D01*
X026127Y001532D02*
X014638Y001532D01*
X014736Y001771D02*
X026184Y001771D01*
X026351Y002009D02*
X014747Y002009D01*
X014701Y002248D02*
X027932Y002248D01*
X027933Y002486D02*
X014580Y002486D01*
X014287Y002725D02*
X027933Y002725D01*
X027934Y002963D02*
X000235Y002963D01*
X000235Y002725D02*
X013508Y002725D01*
X013215Y002486D02*
X000234Y002486D01*
X000236Y003202D02*
X027934Y003202D01*
X027934Y003440D02*
X000236Y003440D01*
X000237Y003679D02*
X027935Y003679D01*
X027935Y003917D02*
X015235Y003917D01*
X015247Y003939D02*
X015262Y003994D01*
X015262Y006024D01*
X013942Y006024D01*
X013942Y006263D01*
X015262Y006263D01*
X015262Y008293D01*
X015247Y008349D01*
X015219Y008399D01*
X015178Y008440D01*
X015127Y008469D01*
X015071Y008484D01*
X013942Y008484D01*
X013942Y006264D01*
X013702Y006264D01*
X013702Y008484D01*
X012573Y008484D01*
X012517Y008469D01*
X012466Y008440D01*
X012425Y008399D01*
X012397Y008349D01*
X012382Y008293D01*
X012382Y006263D01*
X013702Y006263D01*
X013702Y006024D01*
X012382Y006024D01*
X012382Y003994D01*
X012397Y003939D01*
X012425Y003888D01*
X012466Y003847D01*
X012517Y003818D01*
X012573Y003803D01*
X013702Y003803D01*
X013702Y006023D01*
X013942Y006023D01*
X013942Y003803D01*
X015071Y003803D01*
X015127Y003818D01*
X015178Y003847D01*
X015219Y003888D01*
X015247Y003939D01*
X015262Y004156D02*
X027936Y004156D01*
X027936Y004395D02*
X015262Y004395D01*
X015262Y004633D02*
X027937Y004633D01*
X027937Y004872D02*
X015262Y004872D01*
X015262Y005110D02*
X027938Y005110D01*
X027938Y005349D02*
X015262Y005349D01*
X015262Y005587D02*
X027939Y005587D01*
X027939Y005826D02*
X015262Y005826D01*
X015262Y006303D02*
X027940Y006303D01*
X027940Y006541D02*
X015262Y006541D01*
X015262Y006780D02*
X027941Y006780D01*
X027941Y007019D02*
X015262Y007019D01*
X015262Y007257D02*
X027942Y007257D01*
X027942Y007496D02*
X015262Y007496D01*
X015262Y007734D02*
X027943Y007734D01*
X027943Y007973D02*
X015262Y007973D01*
X015262Y008211D02*
X027943Y008211D01*
X027944Y008450D02*
X015160Y008450D01*
X013942Y008450D02*
X013702Y008450D01*
X013702Y008211D02*
X013942Y008211D01*
X013942Y007973D02*
X013702Y007973D01*
X013702Y007734D02*
X013942Y007734D01*
X013942Y007496D02*
X013702Y007496D01*
X013702Y007257D02*
X013942Y007257D01*
X013942Y007019D02*
X013702Y007019D01*
X013702Y006780D02*
X013942Y006780D01*
X013942Y006541D02*
X013702Y006541D01*
X013702Y006303D02*
X013942Y006303D01*
X013942Y006064D02*
X027939Y006064D01*
X027944Y008688D02*
X000246Y008688D01*
X000246Y008450D02*
X012484Y008450D01*
X012382Y008211D02*
X000245Y008211D01*
X000245Y007973D02*
X012382Y007973D01*
X012382Y007734D02*
X000244Y007734D01*
X000244Y007496D02*
X012382Y007496D01*
X012382Y007257D02*
X000243Y007257D01*
X000243Y007019D02*
X012382Y007019D01*
X012382Y006780D02*
X000243Y006780D01*
X000242Y006541D02*
X012382Y006541D01*
X012382Y006303D02*
X000242Y006303D01*
X000241Y006064D02*
X013702Y006064D01*
X013702Y005826D02*
X013942Y005826D01*
X013942Y005587D02*
X013702Y005587D01*
X013702Y005349D02*
X013942Y005349D01*
X013942Y005110D02*
X013702Y005110D01*
X013702Y004872D02*
X013942Y004872D01*
X013942Y004633D02*
X013702Y004633D01*
X013702Y004395D02*
X013942Y004395D01*
X013942Y004156D02*
X013702Y004156D01*
X013702Y003917D02*
X013942Y003917D01*
X012409Y003917D02*
X000237Y003917D01*
X000238Y004156D02*
X012382Y004156D01*
X012382Y004395D02*
X000238Y004395D01*
X000239Y004633D02*
X012382Y004633D01*
X012382Y004872D02*
X000239Y004872D01*
X000239Y005110D02*
X012382Y005110D01*
X012382Y005349D02*
X000240Y005349D01*
X000240Y005587D02*
X012382Y005587D01*
X012382Y005826D02*
X000241Y005826D01*
X000247Y008927D02*
X027945Y008927D01*
X027945Y009165D02*
X000247Y009165D01*
X000247Y009404D02*
X013585Y009404D01*
X013728Y009345D02*
X014067Y009345D01*
X014379Y009474D01*
X014618Y009713D01*
X014747Y010026D01*
X014747Y010364D01*
X014618Y010676D01*
X014379Y010915D01*
X014067Y011045D01*
X013728Y011045D01*
X013416Y010915D01*
X013177Y010676D01*
X013048Y010364D01*
X013048Y010026D01*
X013177Y009713D01*
X013416Y009474D01*
X013728Y009345D01*
X014210Y009404D02*
X027946Y009404D01*
X027946Y009643D02*
X014547Y009643D01*
X014688Y009881D02*
X027947Y009881D01*
X027947Y010120D02*
X014747Y010120D01*
X014747Y010358D02*
X027947Y010358D01*
X027948Y010597D02*
X014651Y010597D01*
X014459Y010835D02*
X027948Y010835D01*
X027949Y011074D02*
X000251Y011074D01*
X000251Y011312D02*
X027949Y011312D01*
X027950Y011551D02*
X000251Y011551D01*
X000252Y011789D02*
X027950Y011789D01*
X027951Y012028D02*
X000252Y012028D01*
X000253Y012266D02*
X027951Y012266D01*
X027952Y012505D02*
X000253Y012505D01*
X000254Y012744D02*
X027952Y012744D01*
X027952Y012982D02*
X000254Y012982D01*
X000255Y013221D02*
X027953Y013221D01*
X027953Y013459D02*
X000255Y013459D01*
X000256Y013698D02*
X027954Y013698D01*
X027954Y013936D02*
X000256Y013936D01*
X000256Y014175D02*
X027955Y014175D01*
X027955Y014413D02*
X000257Y014413D01*
X000257Y014652D02*
X027956Y014652D01*
X027956Y014890D02*
X000258Y014890D01*
X000258Y015129D02*
X027956Y015129D01*
X027957Y015368D02*
X027005Y015368D01*
X026968Y015352D02*
X027230Y015461D01*
X027430Y015661D01*
X027538Y015923D01*
X027538Y016206D01*
X027430Y016468D01*
X027230Y016668D01*
X026968Y016777D01*
X026685Y016777D01*
X026423Y016668D01*
X026223Y016468D01*
X026114Y016206D01*
X026114Y015923D01*
X026223Y015661D01*
X026423Y015461D01*
X026685Y015352D01*
X026968Y015352D01*
X026648Y015368D02*
X000259Y015368D01*
X000259Y015606D02*
X026278Y015606D01*
X026147Y015845D02*
X000260Y015845D01*
X000260Y016083D02*
X026114Y016083D01*
X026162Y016322D02*
X000260Y016322D01*
X000261Y016560D02*
X026315Y016560D01*
X027338Y016560D02*
X027959Y016560D01*
X027959Y016322D02*
X027491Y016322D01*
X027538Y016083D02*
X027958Y016083D01*
X027958Y015845D02*
X027506Y015845D01*
X027375Y015606D02*
X027957Y015606D01*
X027960Y016799D02*
X000261Y016799D01*
X000262Y017037D02*
X027960Y017037D01*
X027960Y017276D02*
X000262Y017276D01*
X000263Y017514D02*
X027961Y017514D01*
X027961Y017753D02*
X000263Y017753D01*
X000264Y017992D02*
X015799Y017992D01*
X015799Y017965D02*
X015928Y017837D01*
X016971Y017837D01*
X017099Y017965D01*
X017099Y019008D01*
X016971Y019137D01*
X015928Y019137D01*
X015799Y019008D01*
X015799Y017965D01*
X015799Y018230D02*
X000264Y018230D01*
X000265Y018469D02*
X015799Y018469D01*
X015799Y018707D02*
X000265Y018707D01*
X000265Y018946D02*
X015799Y018946D01*
X017099Y018946D02*
X025739Y018946D01*
X025739Y019007D02*
X025739Y017965D01*
X025868Y017836D01*
X026910Y017836D01*
X027039Y017965D01*
X027039Y019007D01*
X026910Y019136D01*
X025868Y019136D01*
X025739Y019007D01*
X025739Y018707D02*
X017099Y018707D01*
X017099Y018469D02*
X025739Y018469D01*
X025739Y018230D02*
X017099Y018230D01*
X017099Y017992D02*
X025739Y017992D01*
X027039Y017992D02*
X027962Y017992D01*
X027962Y018230D02*
X027039Y018230D01*
X027039Y018469D02*
X027963Y018469D01*
X027963Y018707D02*
X027039Y018707D01*
X027039Y018946D02*
X027964Y018946D01*
X027964Y019184D02*
X000266Y019184D01*
X000266Y019423D02*
X001026Y019423D01*
X001096Y019354D02*
X001357Y019245D01*
X001641Y019245D01*
X001902Y019354D01*
X002103Y019554D01*
X002211Y019816D01*
X002211Y020099D01*
X002103Y020361D01*
X001902Y020561D01*
X001641Y020669D01*
X001357Y020669D01*
X001096Y020561D01*
X000895Y020361D01*
X000787Y020099D01*
X000787Y019816D01*
X000895Y019554D01*
X001096Y019354D01*
X000851Y019661D02*
X000267Y019661D01*
X000267Y019900D02*
X000787Y019900D01*
X000803Y020138D02*
X000268Y020138D01*
X000268Y020377D02*
X000912Y020377D01*
X001228Y020616D02*
X000269Y020616D01*
X000269Y020854D02*
X027967Y020854D01*
X027967Y020616D02*
X001770Y020616D01*
X002086Y020377D02*
X027966Y020377D01*
X027966Y020138D02*
X002195Y020138D01*
X002211Y019900D02*
X027965Y019900D01*
X027965Y019661D02*
X002147Y019661D01*
X001972Y019423D02*
X027965Y019423D01*
X027968Y021093D02*
X000269Y021093D01*
X000250Y010835D02*
X013336Y010835D01*
X013144Y010597D02*
X000250Y010597D01*
X000249Y010358D02*
X013048Y010358D01*
X013048Y010120D02*
X000249Y010120D01*
X000248Y009881D02*
X013107Y009881D01*
X013248Y009643D02*
X000248Y009643D01*
X002071Y001055D02*
X026267Y001055D01*
X026604Y000816D02*
X001734Y000816D01*
X027074Y000816D02*
X027930Y000816D01*
X027930Y001055D02*
X027411Y001055D01*
X027528Y001294D02*
X027930Y001294D01*
X027931Y001532D02*
X027551Y001532D01*
X027493Y001771D02*
X027931Y001771D01*
X027932Y002009D02*
X027326Y002009D01*
D12*
X013883Y016392D03*
D13*
X020603Y017393D03*
X022099Y017393D03*
X024264Y017393D03*
X027211Y009927D03*
X027289Y007604D03*
X027304Y004387D03*
X027344Y002969D03*
X003958Y016040D03*
X001712Y011186D03*
X000692Y011195D03*
X000883Y004516D03*
D14*
X016449Y018487D03*
X026389Y018486D03*
M02*
